<?xml version="1.0" standalone="no"?>
<!DOCTYPE svg PUBLIC "-//W3C//DTD SVG 20010904//EN"
 "http://www.w3.org/TR/2001/REC-SVG-20010904/DTD/svg10.dtd">
<svg version="1.0" xmlns="http://www.w3.org/2000/svg"
 width="700.000000pt" height="700.000000pt" viewBox="0 0 700.000000 700.000000"
 preserveAspectRatio="xMidYMid meet">
<metadata>
Created by potrace 1.14, written by Peter Selinger 2001-2017
</metadata>
<g transform="translate(0.000000,700.000000) scale(0.100000,-0.100000)"
fill="#000000" stroke="none">
<path d="M655 6993 c-235 -48 -414 -166 -534 -353 -46 -71 -95 -190 -110 -270
-7 -37 -10 -962 -10 -2870 0 -3089 -5 -2871 60 -3025 77 -186 243 -349 427
-419 154 -60 -60 -56 3037 -53 l2840 2 81 26 c263 83 463 293 530 556 l24 95
-1 2822 c0 2731 -1 2823 -19 2898 -75 305 -327 541 -627 587 -52 8 -875 11
-2875 10 -1542 -1 -2812 -3 -2823 -6z"/>
</g>
</svg>
