<?xml version="1.0" standalone="no"?>
<!DOCTYPE svg PUBLIC "-//W3C//DTD SVG 20010904//EN"
 "http://www.w3.org/TR/2001/REC-SVG-20010904/DTD/svg10.dtd">
<svg version="1.0" xmlns="http://www.w3.org/2000/svg"
 width="700.000000pt" height="700.000000pt" viewBox="0 0 700.000000 700.000000"
 preserveAspectRatio="xMidYMid meet">
<metadata>
Created by potrace 1.14, written by Peter Selinger 2001-2017
</metadata>
<g transform="translate(0.000000,700.000000) scale(0.100000,-0.100000)"
fill="#000000" stroke="none">
<path d="M622 6985 c-309 -67 -544 -303 -606 -607 -14 -69 -16 -364 -16 -2878
0 -2522 2 -2809 16 -2878 63 -307 300 -543 609 -607 66 -13 393 -15 2875 -15
2522 0 2809 2 2878 16 307 63 543 300 607 609 13 66 15 393 15 2875 0 2482 -2
2809 -15 2875 -64 309 -300 546 -607 609 -70 14 -355 16 -2885 15 -2337 0
-2819 -3 -2871 -14z m5760 -412 c85 -40 151 -106 191 -191 l32 -67 0 -2815 0
-2815 -32 -67 c-40 -85 -106 -151 -191 -191 l-67 -32 -2815 0 -2815 0 -67 32
c-85 40 -151 106 -191 191 l-32 67 0 2815 0 2815 32 67 c51 108 151 191 260
217 22 5 1231 8 2833 8 l2795 -2 67 -32z"/>
<path d="M3225 4774 c-272 -69 -491 -244 -706 -565 -126 -189 -155 -239 -220
-386 -85 -193 -115 -295 -143 -501 -35 -248 -9 -531 71 -787 86 -274 279 -504
593 -708 189 -122 392 -203 610 -242 141 -25 414 -31 531 -12 52 9 139 21 194
26 283 29 588 205 673 388 20 45 27 78 30 145 l4 88 -42 0 c-27 0 -51 7 -63
17 -16 15 -35 18 -112 16 -127 -4 -226 -26 -315 -72 -41 -22 -104 -49 -140
-61 -36 -12 -105 -42 -155 -66 -180 -88 -352 -118 -581 -103 -209 14 -387 73
-519 171 -65 48 -207 206 -273 304 -103 151 -120 236 -129 635 -6 311 -10 287
75 479 227 513 260 571 401 710 188 186 324 260 477 260 95 0 157 -45 339
-246 69 -76 92 -90 163 -100 l52 -7 0 64 c-1 155 -39 242 -164 377 -68 73
-131 108 -262 147 -74 23 -112 28 -229 31 -77 1 -149 1 -160 -2z"/>
</g>
</svg>
