<?xml version="1.0" standalone="no"?>
<!DOCTYPE svg PUBLIC "-//W3C//DTD SVG 20010904//EN"
 "http://www.w3.org/TR/2001/REC-SVG-20010904/DTD/svg10.dtd">
<svg version="1.0" xmlns="http://www.w3.org/2000/svg"
 width="700.000000pt" height="700.000000pt" viewBox="0 0 700.000000 700.000000"
 preserveAspectRatio="xMidYMid meet">
<metadata>
Created by potrace 1.14, written by Peter Selinger 2001-2017
</metadata>
<g transform="translate(0.000000,700.000000) scale(0.100000,-0.100000)"
fill="#000000" stroke="none">
<path d="M670 6993 c-342 -59 -593 -300 -656 -630 -21 -113 -21 -5613 0 -5726
57 -295 260 -517 559 -610 l72 -22 2820 -3 c3092 -3 2891 -6 3049 57 223 89
382 268 459 514 l22 72 3 2820 c2 2551 1 2828 -13 2900 -54 267 -226 478 -470
576 -158 63 42 59 -3023 58 -1539 -1 -2808 -4 -2822 -6z m5672 -404 c115 -37
203 -121 244 -233 19 -50 19 -124 19 -2856 0 -2732 0 -2806 -19 -2856 -39
-106 -124 -191 -230 -230 -50 -19 -124 -19 -2856 -19 -2732 0 -2806 0 -2856
19 -112 41 -196 129 -233 244 l-21 62 0 2780 0 2780 21 62 c39 120 120 202
242 245 l62 22 2782 1 2783 0 62 -21z"/>
<path d="M3175 4761 c-364 -99 -685 -451 -900 -987 -115 -284 -151 -473 -142
-734 7 -180 28 -303 78 -454 275 -826 1242 -1244 2154 -933 215 74 399 207
461 334 32 65 44 166 24 202 -19 37 -75 54 -180 54 -121 0 -191 -17 -375 -93
-220 -90 -421 -166 -495 -186 -99 -28 -415 -26 -522 4 -462 127 -727 480 -764
1017 -15 231 56 517 212 844 90 189 177 316 299 436 56 55 127 115 158 134
177 105 356 126 459 55 20 -14 84 -77 142 -139 108 -115 137 -134 224 -149
l32 -5 0 52 c-1 129 -72 296 -166 391 -62 62 -159 116 -264 146 -109 32 -337
38 -435 11z"/>
</g>
</svg>
